#Comment line ignore any data following # character 
#Hierarchical Translation and Rotation (.htr) file 
[Header]	
#Header keywords are followed by a single value 
FileType HTR		#Single word string
DataType HTRS		#Translation followed by rotation and scale data
FileVersion 1		#integer
NumSegments 25		#integer
NumFrames 4		#integer
DataFrameRate 30		#integer, data frame rate in this file
EulerRotationOrder ZYX
CalibrationUnits mm
RotationUnits Degrees
GlobalAxisofGravity Y
BoneLengthAxis Y
ScaleFactor 1.00
[SegmentNames&Hierarchy]
#CHILD	PARENT
BN_Tick_Root GLOBAL
BN_Torso BN_Tick_Root
BN_L_Leg_Front01 BN_Torso
BN_L_Leg_Rear01 BN_Torso
BN_MetalTop BN_Torso
BN_Neck BN_Torso
BN_R_Leg_Front01 BN_Torso
BN_R_Leg_Rear01 BN_Torso
BN_Sack BN_Torso
BN_L_Leg_Front02 BN_L_Leg_Front01
BN_L_Leg_Front03 BN_L_Leg_Front02
BN_L_Leg_Rear02 BN_L_Leg_Rear01
BN_L_Leg_Rear03 BN_L_Leg_Rear02
BN_Head BN_Neck
BN_Needle BN_Head
BN_R_Leg_Front02 BN_R_Leg_Front01
BN_R_Leg_Front03 BN_R_Leg_Front02
BN_R_Leg_Rear02 BN_R_Leg_Rear01
BN_R_Leg_Rear03 BN_R_Leg_Rear02
BN_SackDef01 BN_Sack
BN_SackDef02 BN_Sack
BN_SackDef03 BN_Sack
BN_SackDef04 BN_Sack
BN_SackDef05 BN_Sack
BN_SackDef06 BN_Sack
[BasePosition]
#SegmentName Tx, Ty, Tz, Rx, Ry, Rz, BoneLength
BN_Tick_Root 0.000000 0.000000 0.000000 -90.000000 0.000000 0.000000 10.000000 
BN_Torso 0.000000 0.000000 0.000000 0.000000 0.000000 0.000000 10.000000 
BN_L_Leg_Front01 0.000000 0.000000 0.000000 0.000000 0.000000 0.000000 10.000000 
BN_L_Leg_Rear01 0.000000 0.000000 0.000000 0.000000 0.000000 0.000000 10.000000 
BN_MetalTop 0.000000 0.000000 0.000000 0.000000 0.000000 0.000000 10.000000 
BN_Neck 0.000000 0.000000 0.000000 0.000000 0.000000 0.000000 10.000000 
BN_R_Leg_Front01 0.000000 0.000000 0.000000 0.000000 0.000000 0.000000 10.000000 
BN_R_Leg_Rear01 0.000000 0.000000 0.000000 0.000000 0.000000 0.000000 10.000000 
BN_Sack 0.000000 0.000000 0.000000 0.000000 0.000000 0.000000 10.000000 
BN_L_Leg_Front02 0.000000 0.000000 0.000000 0.000000 0.000000 0.000000 10.000000 
BN_L_Leg_Front03 0.000000 0.000000 0.000000 0.000000 0.000000 0.000000 10.000000 
BN_L_Leg_Rear02 0.000000 0.000000 0.000000 0.000000 0.000000 0.000000 10.000000 
BN_L_Leg_Rear03 0.000000 0.000000 0.000000 0.000000 0.000000 0.000000 10.000000 
BN_Head 0.000000 0.000000 0.000000 0.000000 0.000000 0.000000 10.000000 
BN_Needle 0.000000 0.000000 0.000000 0.000000 0.000000 0.000000 10.000000 
BN_R_Leg_Front02 0.000000 0.000000 0.000000 0.000000 0.000000 0.000000 10.000000 
BN_R_Leg_Front03 0.000000 0.000000 0.000000 0.000000 0.000000 0.000000 10.000000 
BN_R_Leg_Rear02 0.000000 0.000000 0.000000 0.000000 0.000000 0.000000 10.000000 
BN_R_Leg_Rear03 0.000000 0.000000 0.000000 0.000000 0.000000 0.000000 10.000000 
BN_SackDef01 0.000000 0.000000 0.000000 0.000000 0.000000 0.000000 10.000000 
BN_SackDef02 0.000000 0.000000 0.000000 0.000000 0.000000 0.000000 10.000000 
BN_SackDef03 0.000000 0.000000 0.000000 0.000000 0.000000 0.000000 10.000000 
BN_SackDef04 0.000000 0.000000 0.000000 0.000000 0.000000 0.000000 10.000000 
BN_SackDef05 0.000000 0.000000 0.000000 0.000000 0.000000 0.000000 10.000000 
BN_SackDef06 0.000000 0.000000 0.000000 0.000000 0.000000 0.000000 10.000000 
#Beginning of Data. Separated by tabs
#Fr	Tx	Ty	Tz	Rx	Ry	Rz	SF
[BN_Tick_Root]
26 0.000000 0.000000 0.000000 0.000000 0.000000 -0.000020 0.000000
27 0.000000 0.000000 0.000000 0.000000 0.000000 -0.000020 0.000000
28 0.000000 0.000000 0.000000 0.000000 0.000000 -0.000020 0.000000
29 0.000000 0.000000 0.000000 0.000000 0.000000 -0.000020 0.000000
[BN_Torso]
26 3.400748 109.076012 174.046524 6.736269 -3.394524 3.212340 205.429626
27 3.400748 109.076012 174.046524 6.660507 -6.140690 3.221568 205.429626
28 3.400748 109.076019 174.046524 6.484503 -7.619879 3.228875 205.429642
29 3.400748 109.076019 174.046524 5.523770 -7.619532 3.229509 205.429642
[BN_L_Leg_Front01]
26 -68.477791 10.734189 -26.804373 -36.245155 51.852158 174.192291 74.316254
27 -68.477791 10.734189 -26.804373 -36.473526 48.342220 173.792938 74.316254
28 -68.477791 10.734189 -26.804373 -36.772232 46.420746 173.436203 74.316254
29 -68.477791 10.734189 -26.804373 -38.267303 46.230236 172.219482 74.316254
[BN_L_Leg_Rear01]
26 -72.133743 -73.994843 -18.268616 66.959686 30.440474 -124.565865 104.939293
27 -72.133743 -73.994843 -18.268616 64.466362 28.380840 -126.371162 104.939293
28 -72.133743 -73.994843 -18.268616 63.086113 27.378126 -127.327866 104.939293
29 -72.133743 -73.994843 -18.268616 62.393814 28.349752 -127.677177 104.939293
[BN_MetalTop]
26 0.000008 13.737477 26.403606 94.569916 -32.739193 -98.408882 29.763546
27 0.000008 13.737477 26.403606 94.597969 -32.896820 -98.423447 29.763546
28 0.000008 13.737477 26.403606 94.626122 -33.054455 -98.438126 29.763546
29 0.000008 13.737477 26.403606 94.654373 -33.212078 -98.452927 29.763546
[BN_Neck]
26 0.000014 95.233284 10.002091 -89.999672 -65.297531 89.999657 95.757088
27 0.000014 95.233284 10.002091 -89.999672 -65.297531 89.999657 95.757088
28 0.000014 95.233284 10.002091 -89.999672 -65.297531 89.999657 95.757088
29 0.000014 95.233284 10.002091 -89.999672 -65.297531 89.999657 95.757088
[BN_R_Leg_Front01]
26 68.477768 10.734107 -26.804314 32.438568 62.077232 -5.287695 74.316193
27 68.477768 10.734107 -26.804314 31.128372 65.495255 -6.708883 74.316193
28 68.477768 10.734107 -26.804314 30.644695 67.333916 -7.264813 74.316193
29 68.477768 10.734107 -26.804314 33.258892 67.392387 -4.699092 74.316193
[BN_R_Leg_Rear01]
26 72.133751 -73.994873 -18.268644 -72.630623 44.202415 -66.519470 104.939331
27 72.133751 -73.994873 -18.268644 -76.144241 45.954136 -69.671158 104.939331
28 72.133751 -73.994873 -18.268644 -78.080261 46.991627 -71.412193 104.939331
29 72.133751 -73.994873 -18.268644 -77.619217 48.239315 -71.024254 104.939331
[BN_Sack]
26 -0.000000 -78.024918 33.657791 91.379875 -11.014523 -97.199577 84.974907
27 -0.000000 -78.024918 33.657791 91.379875 -11.014523 -97.199577 84.974907
28 -0.000000 -78.024918 33.657791 91.379883 -11.014522 -97.199577 84.974907
29 -0.000000 -78.024918 33.657791 91.379875 -11.014524 -97.199577 84.974907
[BN_L_Leg_Front02]
26 142.805023 -0.000015 -0.000104 -0.239331 0.982552 -157.841843 142.805023
27 142.805023 -0.000015 -0.000104 -0.243010 0.979524 -158.838928 142.805023
28 142.805023 -0.000015 -0.000104 -0.257917 1.000689 -159.291718 142.805023
29 142.805023 -0.000015 -0.000104 -0.257978 0.999899 -159.281662 142.805023
[BN_L_Leg_Front03]
26 124.143021 -0.000045 0.000007 0.354451 -0.209085 152.045013 124.143021
27 124.143021 -0.000045 0.000007 0.352409 -0.205745 152.518768 124.143021
28 124.143021 -0.000045 0.000007 0.352024 -0.206402 152.732559 124.143021
29 124.143021 -0.000045 0.000007 0.352045 -0.206367 152.720932 124.143021
[BN_L_Leg_Rear02]
26 139.939041 0.000075 -0.000022 0.105964 -0.220211 87.952782 139.939041
27 139.939041 0.000075 -0.000022 0.110966 -0.229051 88.152100 139.939041
28 139.939041 0.000075 -0.000022 0.110883 -0.229091 88.193413 139.939041
29 139.939041 0.000075 -0.000022 0.110800 -0.229131 88.234726 139.939041
[BN_L_Leg_Rear03]
26 142.839615 0.000179 -0.000060 0.000311 -0.002326 -105.248878 142.839615
27 142.839615 0.000179 -0.000060 0.000316 -0.002326 -105.458282 142.839615
28 142.839615 0.000179 -0.000060 0.000320 -0.002325 -105.667641 142.839615
29 142.839615 0.000179 -0.000060 0.000319 -0.002325 -105.633499 142.839615
[BN_Head]
26 57.062447 -0.000030 0.000000 -4.006149 6.744995 -14.139077 57.062447
27 57.062447 -0.000030 0.000000 -3.832537 9.485184 -14.193932 57.062447
28 57.062447 -0.000030 0.000000 -3.735929 10.961162 -14.350266 57.062447
29 57.062447 -0.000030 0.000000 -3.734272 10.960009 -15.310166 57.062447
[BN_Needle]
26 46.997852 425.919403 -0.000101 0.000003 0.000030 87.896805 428.504547
27 46.997852 425.919403 -0.000100 0.000003 0.000030 87.896805 428.504547
28 46.997849 425.919403 -0.000100 0.000003 0.000030 87.896805 428.504547
29 46.997849 425.919403 -0.000099 0.000003 0.000030 87.896805 428.504547
[BN_R_Leg_Front02]
26 142.804947 -0.000060 0.000060 0.357877 1.062205 166.368210 142.804947
27 142.804947 -0.000060 0.000060 0.323413 1.040981 164.408188 142.804947
28 142.804947 -0.000060 0.000060 0.305684 1.027947 163.299026 142.804947
29 142.804947 -0.000060 0.000060 0.308691 1.028138 163.361542 142.804947
[BN_R_Leg_Front03]
26 124.143005 -0.000060 -0.000156 -0.351249 -0.184650 -155.906494 124.143005
27 124.143005 -0.000060 -0.000156 -0.353678 -0.186867 -155.056213 124.143005
28 124.143005 -0.000060 -0.000156 -0.350741 -0.191261 -154.564636 124.143005
29 124.143005 -0.000060 -0.000156 -0.350694 -0.191346 -154.592529 124.143005
[BN_R_Leg_Rear02]
26 139.939011 -0.000149 0.000015 0.006554 -0.243920 -121.282578 139.939011
27 139.939011 -0.000149 0.000015 0.004556 -0.243965 -120.344124 139.939011
28 139.939011 -0.000149 0.000015 0.003413 -0.243984 -119.807503 139.939011
29 139.939011 -0.000149 0.000015 0.002646 -0.247670 -119.557419 139.939011
[BN_R_Leg_Rear03]
26 142.839417 0.000075 0.000119 0.002140 -0.000963 138.460785 142.839417
27 142.839417 0.000075 0.000119 0.002146 -0.000950 137.745865 142.839417
28 142.839417 0.000075 0.000119 0.002150 -0.000942 137.337326 142.839417
29 142.839417 0.000075 0.000119 0.002151 -0.000939 137.144226 142.839417
[BN_SackDef01]
26 603.140808 -15.926227 104.290428 -128.408218 -44.374973 -11.740845 612.298157
27 607.394653 -16.072660 105.028870 -128.408218 -44.374973 -11.740845 616.617920
28 611.648438 -16.219095 105.767311 -128.408218 -44.374973 -11.740845 620.937683
29 615.902161 -16.365528 106.505753 -128.408218 -44.374973 -11.740845 625.257385
[BN_SackDef02]
26 234.675995 -213.695175 119.457710 32.077126 -27.375721 -88.781525 339.129150
27 235.676498 -215.276627 120.227608 32.077126 -27.375721 -88.781525 341.089600
28 236.677017 -216.858109 120.997498 32.077126 -27.375721 -88.781525 343.050781
29 237.677536 -218.439575 121.767395 32.077126 -27.375721 -88.781525 345.012695
[BN_SackDef03]
26 603.140686 -15.926189 -104.290604 18.144459 44.375008 -11.740894 612.298035
27 607.394531 -16.072641 -105.029037 18.144459 44.375008 -11.740894 616.617798
28 611.648315 -16.219095 -105.767471 18.144459 44.375008 -11.740894 620.937622
29 615.902100 -16.365547 -106.505905 18.144459 44.375008 -11.740894 625.257385
[BN_SackDef04]
26 234.675903 -213.695099 -119.457520 146.059982 27.375723 -88.781555 339.128998
27 235.676392 -215.276550 -120.227379 146.059982 27.375723 -88.781555 341.089417
28 236.676895 -216.858032 -120.997253 146.059982 27.375723 -88.781555 343.050568
29 237.677399 -218.439484 -121.767120 146.059982 27.375723 -88.781555 345.012451
[BN_SackDef05]
26 291.890289 266.765717 -165.599152 0.155741 51.314110 90.605110 428.703827
27 293.974091 269.421295 -166.824249 0.155741 51.314110 90.605110 432.248718
28 296.057953 272.076904 -168.049362 0.155741 51.314110 90.605110 435.794373
29 298.141754 274.732513 -169.274460 0.155741 51.314110 90.605110 439.340759
[BN_SackDef06]
26 291.890411 266.765869 165.598801 152.058487 -51.314072 90.605019 428.703857
27 293.974243 269.421478 166.823929 152.058487 -51.314072 90.605019 432.248779
28 296.058075 272.077118 168.049057 152.058487 -51.314072 90.605019 435.794464
29 298.141907 274.732697 169.274185 152.058487 -51.314072 90.605019 439.340881
